<svg width="24" height="30" viewBox="0 0 24 30" fill="none" xmlns="http://www.w3.org/2000/svg">
<path d="M22.6663 12.0007C22.6663 18.658 15.281 25.5913 12.801 27.7327C12.57 27.9064 12.2887 28.0003 11.9997 28.0003C11.7106 28.0003 11.4294 27.9064 11.1983 27.7327C8.71834 25.5913 1.33301 18.658 1.33301 12.0007C1.33301 9.17168 2.45681 6.45857 4.4572 4.45818C6.45759 2.45779 9.1707 1.33398 11.9997 1.33398C14.8287 1.33398 17.5418 2.45779 19.5421 4.45818C21.5425 6.45857 22.6663 9.17168 22.6663 12.0007Z" stroke="black" stroke-opacity="0.7" stroke-width="2.66667" stroke-linecap="round" stroke-linejoin="round"/>
<path d="M11.999 16.002C14.2082 16.002 15.999 14.2111 15.999 12.002C15.999 9.79281 14.2082 8.00195 11.999 8.00195C9.78988 8.00195 7.99902 9.79281 7.99902 12.002C7.99902 14.2111 9.78988 16.002 11.999 16.002Z" stroke="black" stroke-opacity="0.7" stroke-width="2.66667" stroke-linecap="round" stroke-linejoin="round"/>
</svg>
