<svg width="48" height="48" viewBox="0 0 48 48" fill="none" xmlns="http://www.w3.org/2000/svg">
<path d="M24 32L25 25L17 21L25 15L30 20H34M18 32C18 33.5913 17.3679 35.1174 16.2426 36.2426C15.1174 37.3679 13.5913 38 12 38C10.4087 38 8.88258 37.3679 7.75736 36.2426C6.63214 35.1174 6 33.5913 6 32C6 30.4087 6.63214 28.8826 7.75736 27.7574C8.88258 26.6321 10.4087 26 12 26C13.5913 26 15.1174 26.6321 16.2426 27.7574C17.3679 28.8826 18 30.4087 18 32ZM42 32C42 33.5913 41.3679 35.1174 40.2426 36.2426C39.1174 37.3679 37.5913 38 36 38C34.4087 38 32.8826 37.3679 31.7574 36.2426C30.6321 35.1174 30 33.5913 30 32C30 30.4087 30.6321 28.8826 31.7574 27.7574C32.8826 26.6321 34.4087 26 36 26C37.5913 26 39.1174 26.6321 40.2426 27.7574C41.3679 28.8826 42 30.4087 42 32ZM32 10C32 10.5304 31.7893 11.0391 31.4142 11.4142C31.0391 11.7893 30.5304 12 30 12C29.4696 12 28.9609 11.7893 28.5858 11.4142C28.2107 11.0391 28 10.5304 28 10C28 9.46957 28.2107 8.96086 28.5858 8.58579C28.9609 8.21071 29.4696 8 30 8C30.5304 8 31.0391 8.21071 31.4142 8.58579C31.7893 8.96086 32 9.46957 32 10Z" stroke="#01FF01" stroke-width="4" stroke-linecap="round" stroke-linejoin="round"/>
</svg>
