<svg width="72" height="72" viewBox="0 0 72 72" fill="none" xmlns="http://www.w3.org/2000/svg">
<path d="M36 48L37.5 37.5L25.5 31.5L37.5 22.5L45 30H51M27 48C27 50.3869 26.0518 52.6761 24.364 54.364C22.6761 56.0518 20.3869 57 18 57C15.6131 57 13.3239 56.0518 11.636 54.364C9.94821 52.6761 9 50.3869 9 48C9 45.6131 9.94821 43.3239 11.636 41.636C13.3239 39.9482 15.6131 39 18 39C20.3869 39 22.6761 39.9482 24.364 41.636C26.0518 43.3239 27 45.6131 27 48ZM63 48C63 50.3869 62.0518 52.6761 60.364 54.364C58.6761 56.0518 56.3869 57 54 57C51.6131 57 49.3239 56.0518 47.636 54.364C45.9482 52.6761 45 50.3869 45 48C45 45.6131 45.9482 43.3239 47.636 41.636C49.3239 39.9482 51.6131 39 54 39C56.3869 39 58.6761 39.9482 60.364 41.636C62.0518 43.3239 63 45.6131 63 48ZM48 15C48 15.7956 47.6839 16.5587 47.1213 17.1213C46.5587 17.6839 45.7956 18 45 18C44.2044 18 43.4413 17.6839 42.8787 17.1213C42.3161 16.5587 42 15.7956 42 15C42 14.2044 42.3161 13.4413 42.8787 12.8787C43.4413 12.3161 44.2044 12 45 12C45.7956 12 46.5587 12.3161 47.1213 12.8787C47.6839 13.4413 48 14.2044 48 15Z" stroke="#99A1AF" stroke-width="5.33333" stroke-linecap="round" stroke-linejoin="round"/>
</svg>
