<svg width="46" height="46" viewBox="0 0 46 46" fill="none" xmlns="http://www.w3.org/2000/svg">
<path d="M23 30.667L23.9583 23.9587L16.2917 20.1253L23.9583 14.3753L28.75 19.167H32.5833M17.25 30.667C17.25 32.192 16.6442 33.6545 15.5659 34.7329C14.4875 35.8112 13.025 36.417 11.5 36.417C9.97501 36.417 8.51247 35.8112 7.43414 34.7329C6.3558 33.6545 5.75 32.192 5.75 30.667C5.75 29.142 6.3558 27.6795 7.43414 26.6011C8.51247 25.5228 9.97501 24.917 11.5 24.917C13.025 24.917 14.4875 25.5228 15.5659 26.6011C16.6442 27.6795 17.25 29.142 17.25 30.667ZM40.25 30.667C40.25 32.192 39.6442 33.6545 38.5659 34.7329C37.4875 35.8112 36.025 36.417 34.5 36.417C32.975 36.417 31.5125 35.8112 30.4341 34.7329C29.3558 33.6545 28.75 32.192 28.75 30.667C28.75 29.142 29.3558 27.6795 30.4341 26.6011C31.5125 25.5228 32.975 24.917 34.5 24.917C36.025 24.917 37.4875 25.5228 38.5659 26.6011C39.6442 27.6795 40.25 29.142 40.25 30.667ZM30.6667 9.58366C30.6667 10.092 30.4647 10.5795 30.1053 10.9389C29.7458 11.2984 29.2583 11.5003 28.75 11.5003C28.2417 11.5003 27.7542 11.2984 27.3947 10.9389C27.0353 10.5795 26.8333 10.092 26.8333 9.58366C26.8333 9.07533 27.0353 8.58782 27.3947 8.22837C27.7542 7.86893 28.2417 7.66699 28.75 7.66699C29.2583 7.66699 29.7458 7.86893 30.1053 8.22837C30.4647 8.58782 30.6667 9.07533 30.6667 9.58366Z" stroke="#01FF01" stroke-width="3.83333" stroke-linecap="round" stroke-linejoin="round"/>
</svg>
