<svg width="40" height="40" viewBox="0 0 40 40" fill="none" xmlns="http://www.w3.org/2000/svg">
<path d="M4 10V14H36V10C36 8.93913 35.5786 7.92172 34.8284 7.17157C34.0783 6.42143 33.0609 6 32 6H8C6.93913 6 5.92172 6.42143 5.17157 7.17157C4.42143 7.92172 4 8.93913 4 10Z" fill="white"/>
<path d="M28 6H32C33.0609 6 34.0783 6.42143 34.8284 7.17157C35.5786 7.92172 36 8.93913 36 10V14H4V10C4 8.93913 4.42143 7.92172 5.17157 7.17157C5.92172 6.42143 6.93913 6 8 6H12M28 6V2M28 6H12M12 6V2M4 15V34C4 35.0609 4.42143 36.0783 5.17157 36.8284C5.92172 37.5786 6.93913 38 8 38H32C33.0609 38 34.0783 37.5786 34.8284 36.8284C35.5786 36.0783 36 35.0609 36 34V15" stroke="white" stroke-width="2.66667" stroke-linecap="round" stroke-linejoin="round"/>
</svg>
