<svg width="38" height="38" viewBox="0 0 38 38" fill="none" xmlns="http://www.w3.org/2000/svg">
<path d="M19.0003 26.916C19.4489 26.916 19.8252 26.764 20.1292 26.46C20.4332 26.156 20.5847 25.7802 20.5837 25.3327V18.9993C20.5837 18.5507 20.4317 18.175 20.1277 17.872C19.8237 17.5691 19.4479 17.4171 19.0003 17.416C18.5528 17.415 18.177 17.567 17.873 17.872C17.569 18.1771 17.417 18.5528 17.417 18.9993V25.3327C17.417 25.7813 17.569 26.1576 17.873 26.4616C18.177 26.7656 18.5528 26.9171 19.0003 26.916ZM19.0003 14.2493C19.4489 14.2493 19.8252 14.0973 20.1292 13.7933C20.4332 13.4893 20.5847 13.1136 20.5837 12.666C20.5826 12.2185 20.4306 11.8427 20.1277 11.5387C19.8247 11.2347 19.4489 11.0827 19.0003 11.0827C18.5517 11.0827 18.1759 11.2347 17.873 11.5387C17.57 11.8427 17.418 12.2185 17.417 12.666C17.4159 13.1136 17.5679 13.4899 17.873 13.7949C18.178 14.1 18.5538 14.2515 19.0003 14.2493ZM19.0003 34.8327C16.81 34.8327 14.7517 34.4168 12.8253 33.585C10.8989 32.7532 9.22324 31.6254 7.79824 30.2014C6.37324 28.7775 5.24538 27.1018 4.41466 25.1743C3.58394 23.2469 3.16805 21.1886 3.16699 18.9993C3.16594 16.8101 3.58183 14.7518 4.41466 12.8243C5.24749 10.8969 6.37536 9.22121 7.79824 7.79727C9.22113 6.37332 10.8968 5.24546 12.8253 4.41368C14.7538 3.5819 16.8122 3.16602 19.0003 3.16602C21.1885 3.16602 23.2468 3.5819 25.1753 4.41368C27.1038 5.24546 28.7795 6.37332 30.2024 7.79727C31.6253 9.22121 32.7537 10.8969 33.5876 12.8243C34.4215 14.7518 34.8368 16.8101 34.8337 18.9993C34.8305 21.1886 34.4146 23.2469 33.586 25.1743C32.7574 27.1018 31.6295 28.7775 30.2024 30.2014C28.7753 31.6254 27.0996 32.7538 25.1753 33.5866C23.251 34.4194 21.1927 34.8348 19.0003 34.8327ZM19.0003 31.666C22.5364 31.666 25.5316 30.4389 27.9857 27.9848C30.4399 25.5306 31.667 22.5355 31.667 18.9993C31.667 15.4632 30.4399 12.4681 27.9857 10.0139C25.5316 7.55977 22.5364 6.33268 19.0003 6.33268C15.4642 6.33268 12.4691 7.55977 10.0149 10.0139C7.56074 12.4681 6.33366 15.4632 6.33366 18.9993C6.33366 22.5355 7.56074 25.5306 10.0149 27.9848C12.4691 30.4389 15.4642 31.666 19.0003 31.666Z" fill="#01FF01"/>
</svg>
