<svg width="46" height="46" viewBox="0 0 46 46" fill="none" xmlns="http://www.w3.org/2000/svg">
<g clip-path="url(#clip0_379_985)">
<path d="M22.4096 40.633C27.2061 40.633 31.8062 38.7752 35.1979 35.4683C38.5896 32.1614 40.495 27.6763 40.495 22.9997C40.495 18.323 38.5896 13.8379 35.1979 10.531C31.8062 7.22413 27.2061 5.36634 22.4096 5.36634C17.613 5.36634 13.0129 7.22413 9.62121 10.531C6.22953 13.8379 4.3241 18.323 4.3241 22.9997C4.3241 27.6763 6.22953 32.1614 9.62121 35.4683C13.0129 38.7752 17.613 40.633 22.4096 40.633ZM22.4096 0.958008C25.3783 0.958008 28.318 1.52813 31.0608 2.63583C33.8036 3.74353 36.2958 5.3671 38.395 7.41386C40.4943 9.46062 42.1595 11.8905 43.2956 14.5647C44.4317 17.2389 45.0164 20.1051 45.0164 22.9997C45.0164 28.8455 42.6346 34.4519 38.395 38.5855C34.1554 42.7191 28.4053 45.0413 22.4096 45.0413C9.90799 45.0413 -0.197266 35.1226 -0.197266 22.9997C-0.197266 17.1539 2.18452 11.5475 6.42412 7.41386C10.6637 3.28025 16.4139 0.958008 22.4096 0.958008ZM23.5399 11.9788V23.5507L33.713 29.4358L32.0175 32.147L20.1489 25.2038V11.9788H23.5399Z" fill="#01FF01"/>
</g>
<defs>
<clipPath id="clip0_379_985">
<rect width="46" height="46" fill="white"/>
</clipPath>
</defs>
</svg>
