<svg width="48" height="48" viewBox="0 0 48 48" fill="none" xmlns="http://www.w3.org/2000/svg">
<path d="M16 38.0002H26C31.656 38.0002 34.486 38.0002 36.242 36.2422C38 34.4862 38 31.6562 38 26.0002C38 22.2742 38 19.7742 37.498 18.0002M11 14.0762C8.484 14.2162 6.896 14.6182 5.758 15.7562C4 17.5182 4 20.3462 4 26.0002C4 30.4882 4 33.1962 4.878 35.0002M38 21.0002L40.054 21.3422C41.416 21.5702 42.098 21.6822 42.614 22.0142C43.1231 22.3386 43.5225 22.8091 43.76 23.3642C44 23.9282 44 24.6182 44 26.0002C44 27.3802 44 28.0722 43.76 28.6362C43.5231 29.191 43.1244 29.6614 42.616 29.9862C42.098 30.3162 41.416 30.4302 40.056 30.6582L38 31.0002" stroke="white" stroke-width="4" stroke-linecap="round"/>
<path d="M10.0663 40.0005C9.09034 29.2005 18.0003 27.0005 22.0003 22.0005M22.0683 31.6705C27.1583 30.2505 30.4223 26.8445 31.6323 21.6965C33.0043 15.8665 30.5463 7.92651 24.2063 8.00051C24.2063 8.00051 24.8503 10.5205 24.2863 11.7525C22.2063 16.3025 15.0003 15.9865 12.6663 21.7525C11.2743 24.9825 12.1163 28.5885 14.7323 30.6565C16.3763 31.9565 19.6243 32.3545 22.0683 31.6705Z" stroke="white" stroke-width="4" stroke-linecap="round" stroke-linejoin="round"/>
</svg>
