<svg width="48" height="48" viewBox="0 0 48 48" fill="none" xmlns="http://www.w3.org/2000/svg">
<path d="M30 24C30 25.5913 29.3679 27.1174 28.2426 28.2426C27.1174 29.3679 25.5913 30 24 30C22.4087 30 20.8826 29.3679 19.7574 28.2426C18.6321 27.1174 18 25.5913 18 24C18 22.4087 18.6321 20.8826 19.7574 19.7574C20.8826 18.6321 22.4087 18 24 18C25.5913 18 27.1174 18.6321 28.2426 19.7574C29.3679 20.8826 30 22.4087 30 24Z" stroke="#01FF01" stroke-width="4" stroke-linecap="round" stroke-linejoin="round"/>
<path d="M4 24C7.2 15.806 14.672 10 24 10C33.328 10 40.8 15.806 44 24C40.8 32.194 33.328 38 24 38C14.672 38 7.2 32.194 4 24Z" stroke="#01FF01" stroke-width="4" stroke-linecap="round" stroke-linejoin="round"/>
</svg>
