<svg width="48" height="48" viewBox="0 0 48 48" fill="none" xmlns="http://www.w3.org/2000/svg">
<path d="M14.5398 20.019C12.8518 17.9437 11.2671 17.498 9.7858 18.682C7.5628 20.458 6.9248 26.65 8.7128 32.11C10.5008 37.57 13.9798 45.003 21.0018 45.003C28.0238 45.003 29.6838 37.522 32.5478 33C35.4128 28.478 36.9278 24.115 34.1208 18.682" stroke="white" stroke-width="4" stroke-linecap="round" stroke-linejoin="round"/>
<path d="M11.0001 18.0371C9.67809 16.0172 8.34473 14.0049 7.00008 12.0001C5.55408 9.85507 9.25108 7.08207 11.0001 8.96807C12.1661 10.2261 13.7151 12.0784 15.6471 14.5251" stroke="white" stroke-width="4" stroke-linecap="round"/>
<path d="M15.0247 25.6401C14.5401 19.5761 14.9341 15.6277 16.2067 13.7951C18.1167 11.0451 21.6637 10.0031 25.0047 10.0031C26.9934 10.0031 28.8094 10.8501 30.4527 12.5441" stroke="white" stroke-width="4" stroke-linecap="round" stroke-linejoin="round"/>
<path d="M41.0002 12.6131C41.5862 14.6491 40.6302 16.5101 37.6842 16.9311C34.7382 17.3521 32.5312 18.8331 30.9392 20.0791C29.3472 21.3251 26.4992 25.1051 25.9362 27.0021C25.3732 28.8991 22.1602 27.1551 21.2972 26.3971C20.4342 25.6401 19.5852 23.9811 21.2972 22.2461C23.0092 20.5111 22.6382 20.1651 22.6382 18.4061C22.6382 16.6461 32.0002 10.8261 37.2732 10.2941C38.4452 10.2261 40.4152 10.5761 41.0002 12.6131Z" stroke="white" stroke-width="4"/>
<path d="M23.0088 4.00004V9.26304M20.3078 10.718C17.2898 6.9247 14.8565 4.80804 13.0078 4.36804M17.0048 7.02904L17.9948 2.96204M35.6138 10.718C35.2918 11.822 35.2918 12.8574 35.6138 13.824C35.9365 14.7907 36.6268 15.8264 37.6848 16.931" stroke="white" stroke-width="4" stroke-linecap="round"/>
</svg>
