<svg width="32" height="32" viewBox="0 0 32 32" fill="none" xmlns="http://www.w3.org/2000/svg">
<path d="M16.0003 22.666C16.3781 22.666 16.695 22.538 16.951 22.282C17.207 22.026 17.3345 21.7096 17.3337 21.3327V15.9993C17.3337 15.6216 17.2057 15.3051 16.9497 15.05C16.6937 14.7949 16.3772 14.6669 16.0003 14.666C15.6234 14.6651 15.307 14.7931 15.051 15.05C14.795 15.3069 14.667 15.6233 14.667 15.9993V21.3327C14.667 21.7105 14.795 22.0273 15.051 22.2833C15.307 22.5393 15.6234 22.6669 16.0003 22.666ZM16.0003 11.9993C16.3781 11.9993 16.695 11.8713 16.951 11.6153C17.207 11.3593 17.3345 11.0429 17.3337 10.666C17.3328 10.2891 17.2048 9.97268 16.9497 9.71668C16.6945 9.46068 16.3781 9.33268 16.0003 9.33268C15.6225 9.33268 15.3061 9.46068 15.051 9.71668C14.7959 9.97268 14.6679 10.2891 14.667 10.666C14.6661 11.0429 14.7941 11.3598 15.051 11.6167C15.3079 11.8736 15.6243 12.0011 16.0003 11.9993ZM16.0003 29.3327C14.1559 29.3327 12.4225 28.9825 10.8003 28.282C9.17811 27.5816 7.76699 26.6318 6.56699 25.4327C5.36699 24.2336 4.41722 22.8225 3.71766 21.1993C3.01811 19.5762 2.66788 17.8429 2.66699 15.9993C2.6661 14.1558 3.01633 12.4225 3.71766 10.7993C4.41899 9.17624 5.36877 7.76513 6.56699 6.56602C7.76522 5.3669 9.17633 4.41713 10.8003 3.71668C12.4243 3.01624 14.1577 2.66602 16.0003 2.66602C17.843 2.66602 19.5763 3.01624 21.2003 3.71668C22.8243 4.41713 24.2354 5.3669 25.4337 6.56602C26.6319 7.76513 27.5821 9.17624 28.2843 10.7993C28.9865 12.4225 29.3363 14.1558 29.3337 15.9993C29.331 17.8429 28.9808 19.5762 28.283 21.1993C27.5852 22.8225 26.6354 24.2336 25.4337 25.4327C24.2319 26.6318 22.8208 27.582 21.2003 28.2833C19.5799 28.9847 17.8465 29.3345 16.0003 29.3327ZM16.0003 26.666C18.9781 26.666 21.5003 25.6327 23.567 23.566C25.6337 21.4993 26.667 18.9771 26.667 15.9993C26.667 13.0216 25.6337 10.4993 23.567 8.43268C21.5003 6.36602 18.9781 5.33268 16.0003 5.33268C13.0225 5.33268 10.5003 6.36602 8.43366 8.43268C6.36699 10.4993 5.33366 13.0216 5.33366 15.9993C5.33366 18.9771 6.36699 21.4993 8.43366 23.566C10.5003 25.6327 13.0225 26.666 16.0003 26.666Z" fill="#C09001"/>
</svg>
