<svg width="27" height="22" viewBox="0 0 27 22" fill="none" xmlns="http://www.w3.org/2000/svg">
<path d="M2.66667 21.3333C1.93333 21.3333 1.30578 21.0724 0.784 20.5507C0.262222 20.0289 0.000888889 19.4009 0 18.6667V2.66667C0 1.93333 0.261333 1.30578 0.784 0.784C1.30667 0.262222 1.93422 0.000888889 2.66667 0H24C24.7333 0 25.3613 0.261333 25.884 0.784C26.4067 1.30667 26.6676 1.93422 26.6667 2.66667V18.6667C26.6667 19.4 26.4058 20.028 25.884 20.5507C25.3622 21.0733 24.7342 21.3342 24 21.3333H2.66667ZM24 5.33333L14.0333 11.5667C13.9222 11.6333 13.8058 11.6836 13.684 11.7173C13.5622 11.7511 13.4453 11.7676 13.3333 11.7667C13.2213 11.7658 13.1049 11.7493 12.984 11.7173C12.8631 11.6853 12.7462 11.6351 12.6333 11.5667L2.66667 5.33333V18.6667H24V5.33333ZM13.3333 9.33333L24 2.66667H2.66667L13.3333 9.33333ZM2.66667 5.66667V3.7V3.73333V3.71733V5.66667Z" fill="black" fill-opacity="0.7"/>
</svg>
