<svg width="40" height="40" viewBox="0 0 40 40" fill="none" xmlns="http://www.w3.org/2000/svg">
<path d="M6.66634 33.3327C5.74967 33.3327 4.96523 33.0066 4.31301 32.3543C3.66079 31.7021 3.33412 30.9171 3.33301 29.9993V9.99935C3.33301 9.08268 3.65967 8.29824 4.31301 7.64602C4.96634 6.99379 5.75079 6.66713 6.66634 6.66602H33.333C34.2497 6.66602 35.0347 6.99268 35.688 7.64602C36.3413 8.29935 36.6674 9.08379 36.6663 9.99935V29.9993C36.6663 30.916 36.3402 31.701 35.688 32.3543C35.0358 33.0077 34.2508 33.3338 33.333 33.3327H6.66634ZM19.9997 21.666L6.66634 13.3327V29.9993H33.333V13.3327L19.9997 21.666ZM19.9997 18.3327L33.333 9.99935H6.66634L19.9997 18.3327ZM6.66634 13.3327V9.99935V29.9993V13.3327Z" fill="#4A5565"/>
</svg>
