<svg width="64" height="64" viewBox="0 0 64 64" fill="none" xmlns="http://www.w3.org/2000/svg">
<path d="M58.666 32.0002V53.3335C58.666 54.748 58.1041 56.1045 57.1039 57.1047C56.1037 58.1049 54.7472 58.6668 53.3327 58.6668H10.666C9.25153 58.6668 7.89497 58.1049 6.89478 57.1047C5.89459 56.1045 5.33268 54.748 5.33268 53.3335V32.0002C4.62544 32.0002 3.94716 31.7192 3.44706 31.2191C2.94697 30.719 2.66602 30.0407 2.66602 29.3335V21.3335C2.66602 19.919 3.22792 18.5625 4.22811 17.5623C5.22831 16.5621 6.58486 16.0002 7.99935 16.0002H16.4527C16.1513 15.1434 15.998 14.2417 15.9993 13.3335C15.9993 11.2118 16.8422 9.17693 18.3425 7.67664C19.8428 6.17635 21.8776 5.3335 23.9993 5.3335C26.666 5.3335 29.0127 6.66683 30.4793 8.64016V8.6135L31.9993 10.6668L33.5193 8.6135V8.64016C34.986 6.66683 37.3327 5.3335 39.9993 5.3335C42.1211 5.3335 44.1559 6.17635 45.6562 7.67664C47.1565 9.17693 47.9993 11.2118 47.9993 13.3335C48.0007 14.2417 47.8474 15.1434 47.546 16.0002H55.9993C57.4138 16.0002 58.7704 16.5621 59.7706 17.5623C60.7708 18.5625 61.3327 19.919 61.3327 21.3335V29.3335C61.3327 30.0407 61.0517 30.719 60.5516 31.2191C60.0515 31.7192 59.3733 32.0002 58.666 32.0002ZM10.666 53.3335H29.3327V32.0002H10.666V53.3335ZM53.3327 53.3335V32.0002H34.666V53.3335H53.3327ZM23.9993 10.6668C23.2921 10.6668 22.6138 10.9478 22.1137 11.4479C21.6136 11.948 21.3327 12.6263 21.3327 13.3335C21.3327 14.0407 21.6136 14.719 22.1137 15.2191C22.6138 15.7192 23.2921 16.0002 23.9993 16.0002C24.7066 16.0002 25.3849 15.7192 25.885 15.2191C26.3851 14.719 26.666 14.0407 26.666 13.3335C26.666 12.6263 26.3851 11.948 25.885 11.4479C25.3849 10.9478 24.7066 10.6668 23.9993 10.6668ZM39.9993 10.6668C39.2921 10.6668 38.6138 10.9478 38.1137 11.4479C37.6136 11.948 37.3327 12.6263 37.3327 13.3335C37.3327 14.0407 37.6136 14.719 38.1137 15.2191C38.6138 15.7192 39.2921 16.0002 39.9993 16.0002C40.7066 16.0002 41.3849 15.7192 41.885 15.2191C42.3851 14.719 42.666 14.0407 42.666 13.3335C42.666 12.6263 42.3851 11.948 41.885 11.4479C41.3849 10.9478 40.7066 10.6668 39.9993 10.6668ZM7.99935 21.3335V26.6668H29.3327V21.3335H7.99935ZM34.666 21.3335V26.6668H55.9993V21.3335H34.666Z" fill="#43C914"/>
</svg>
