<svg width="64" height="64" viewBox="0 0 64 64" fill="none" xmlns="http://www.w3.org/2000/svg">
<path d="M31.6667 45C27.2027 45 23.3201 48.3733 21.3147 53.3493C20.3547 55.728 21.7307 58.3333 23.5547 58.3333H39.7761C41.6027 58.3333 42.9761 55.728 42.0187 53.3493C40.0134 48.3733 36.1307 45 31.6667 45Z" stroke="black" stroke-width="5" stroke-linecap="round"/>
<path d="M49.0003 13H52.2056C55.4083 13 57.0083 13 57.8456 14.0053C58.6803 15.0133 58.3336 16.5227 57.6376 19.544L56.5976 24.0773C55.0269 30.888 49.2936 35.9547 42.3336 37M14.3336 13H11.1283C7.9256 13 6.32293 13 5.48827 14.0053C4.6536 15.0133 5.00027 16.5227 5.69627 19.544L6.73627 24.0773C8.30693 30.888 14.0403 35.9547 21.0003 37" stroke="black" stroke-width="5" stroke-linecap="round" stroke-linejoin="round"/>
<path d="M31.6671 45C39.7204 45 46.5071 32.568 48.5471 15.64C49.1098 10.9627 49.3924 8.62133 47.8991 6.81067C46.4058 5 43.9924 5 39.1684 5H24.1658C19.3391 5 16.9284 5 15.4351 6.81067C13.9418 8.62133 14.2271 10.9627 14.7871 15.6427C16.8271 32.568 23.6138 45 31.6671 45Z" stroke="black" stroke-width="5" stroke-linecap="round"/>
</svg>
