<svg width="42" height="42" viewBox="0 0 42 42" fill="none" xmlns="http://www.w3.org/2000/svg">
<path d="M18.7555 8.17031C18.3697 7.78382 17.8928 7.50086 17.3687 7.34759C16.8446 7.19432 16.2903 7.17571 15.7571 7.29347C15.2239 7.41123 14.7291 7.66156 14.3183 8.0213C13.9075 8.38104 13.5941 8.83857 13.407 9.35156L4.79373 33.0438C4.61568 33.5337 4.55801 34.0593 4.62559 34.5761C4.69317 35.093 4.88402 35.5861 5.18205 36.0137C5.48007 36.4414 5.87655 36.7911 6.33805 37.0335C6.79955 37.2758 7.31255 37.4037 7.83381 37.4062C8.21669 37.4055 8.59648 37.3378 8.956 37.2061L32.6483 28.5928C33.1618 28.4065 33.62 28.0936 33.9804 27.6831C34.3409 27.2727 34.5919 26.7779 34.7104 26.2447C34.8288 25.7114 34.8108 25.1569 34.6579 24.6324C34.5051 24.108 34.2224 23.6305 33.8361 23.2444L18.7555 8.17031ZM17.0935 30.0579L11.9419 24.9063L13.6072 20.3273L21.6725 28.3927L17.0935 30.0579ZM10.4621 28.9898L13.01 31.5427L8.99866 33.0012L10.4621 28.9898ZM25.7576 26.9062L15.0936 16.2422L16.7342 11.7173L30.2808 25.2656L25.7576 26.9062ZM20.9998 6.5625V2.625C20.9998 2.10286 21.2073 1.6021 21.5765 1.23288C21.9457 0.863671 22.4464 0.65625 22.9686 0.65625C23.4907 0.65625 23.9915 0.863671 24.3607 1.23288C24.7299 1.6021 24.9373 2.10286 24.9373 2.625V6.5625C24.9373 7.08464 24.7299 7.5854 24.3607 7.95462C23.9915 8.32383 23.4907 8.53125 22.9686 8.53125C22.4464 8.53125 21.9457 8.32383 21.5765 7.95462C21.2073 7.5854 20.9998 7.08464 20.9998 6.5625ZM40.1098 20.2634C40.4797 20.6332 40.6875 21.1348 40.6875 21.6579C40.6875 22.1809 40.4797 22.6826 40.1098 23.0524C39.74 23.4223 39.2383 23.6301 38.7153 23.6301C38.1922 23.6301 37.6906 23.4223 37.3208 23.0524L34.6958 20.4274C34.3259 20.0576 34.1181 19.5559 34.1181 19.0329C34.1181 18.5098 34.3259 18.0082 34.6958 17.6384C35.0656 17.2685 35.5672 17.0607 36.0903 17.0607C36.6133 17.0607 37.115 17.2685 37.4848 17.6384L40.1098 20.2634ZM39.9966 13.6795L36.0591 14.992C35.5637 15.1572 35.023 15.1187 34.556 14.8852C34.0889 14.6517 33.7338 14.2422 33.5687 13.7468C33.4035 13.2514 33.442 12.7107 33.6755 12.2437C33.909 11.7766 34.3185 11.4215 34.8139 11.2563L38.7514 9.94383C39.2468 9.7787 39.7875 9.81713 40.2545 10.0507C40.7216 10.2842 41.0767 10.6937 41.2419 11.1891C41.407 11.6844 41.3686 12.2251 41.135 12.6922C40.9015 13.1592 40.492 13.5144 39.9966 13.6795ZM25.692 10.8166C26.2219 7.78805 28.4466 5.90625 31.4998 5.90625C32.558 5.90625 32.9255 5.49773 33.1405 5.09906C33.3317 4.7316 33.4435 4.32802 33.4686 3.91453V3.9375C33.4686 3.41535 33.676 2.9146 34.0452 2.54538C34.4144 2.17617 34.9152 1.96875 35.4373 1.96875C35.9595 1.96875 36.4602 2.17617 36.8294 2.54538C37.1987 2.9146 37.4061 3.41535 37.4061 3.9375C37.4061 6.31148 35.8327 9.84375 31.4998 9.84375C30.6894 9.84375 29.8248 10.039 29.5705 11.4942C29.4909 11.9505 29.2531 12.3642 28.8987 12.6625C28.5443 12.9608 28.0961 13.1245 27.6329 13.125C27.5185 13.1248 27.4043 13.1149 27.2916 13.0955C26.7773 13.0054 26.3199 12.7147 26.0199 12.2873C25.7199 11.86 25.602 11.331 25.692 10.8166Z" fill="#01FF01"/>
</svg>
