<svg width="42" height="42" viewBox="0 0 42 42" fill="none" xmlns="http://www.w3.org/2000/svg">
<path d="M20.0673 36.4347C20.3354 36.6388 20.6631 36.7493 21 36.7493C21.337 36.7493 21.6647 36.6388 21.9328 36.4347C24.794 34.2874 33.25 27.2752 33.25 19.2777V10.6502C33.2518 10.4276 33.1711 10.2123 33.0234 10.0458C32.8756 9.87938 32.6715 9.77359 32.4503 9.74891C28.9462 9.39001 25.5878 8.15904 22.6818 6.16841L21.6143 5.43866C21.4335 5.31451 21.2193 5.24805 21 5.24805C20.7807 5.24805 20.5666 5.31451 20.3858 5.43866L19.3183 6.16841C16.4123 8.15904 13.0539 9.39001 9.54978 9.74891C9.3286 9.77359 9.12442 9.87938 8.9767 10.0458C8.82899 10.2123 8.74822 10.4276 8.75003 10.6502V19.2777C8.75003 27.2752 17.206 34.2874 20.0673 36.4312" stroke="#01FF01" stroke-width="2.625" stroke-linecap="round" stroke-linejoin="round"/>
</svg>
