<svg width="43" height="41" viewBox="0 0 43 41" fill="none" xmlns="http://www.w3.org/2000/svg">
<path d="M30.9767 39.122L22.1107 34.4636C21.7811 34.285 21.4143 34.1915 21.0393 34.1915C20.6644 34.1915 20.2954 34.285 19.9657 34.4636L11.0976 39.122C10.723 39.3185 10.3007 39.4061 9.87884 39.3747C9.45695 39.3434 9.05231 39.1943 8.71089 38.9445C8.36946 38.6947 8.10493 38.3542 7.94735 37.9616C7.78976 37.5689 7.74544 37.14 7.81941 36.7235L9.51591 26.8651C9.58011 26.5012 9.55381 26.127 9.43932 25.7756C9.32484 25.4243 9.12568 25.1064 8.85941 24.8501L1.68991 17.8605C1.38471 17.5655 1.16868 17.1905 1.06651 16.7785C0.964335 16.3666 0.980147 15.9341 1.11214 15.5307C1.24413 15.1273 1.48697 14.7691 1.8129 14.4972C2.13883 14.2253 2.53469 14.0505 2.95524 13.993L12.7269 12.5695C13.0897 12.5156 13.4339 12.3739 13.7296 12.1568C14.0252 11.9397 14.2634 11.6537 14.4234 11.3236L18.9409 2.27781C19.1259 1.8949 19.4152 1.57191 19.7754 1.3459C20.1356 1.11988 20.5523 1 20.9776 1C21.4028 1 21.8195 1.11988 22.1797 1.3459C22.54 1.57191 22.8292 1.8949 23.0142 2.27781L27.5382 11.3236C27.6985 11.654 27.937 11.9402 28.233 12.1573C28.5291 12.3744 28.8737 12.5159 29.2369 12.5695L39.1429 13.993C39.5623 14.0528 39.9565 14.2293 40.2804 14.5024C40.6043 14.7754 40.8449 15.134 40.9748 15.5373C41.1047 15.9405 41.1186 16.3722 41.015 16.7829C40.9114 17.1937 40.6944 17.5671 40.3887 17.8605L33.2171 24.8501C32.9527 25.1073 32.7548 25.4249 32.6404 25.7755C32.526 26.1262 32.4986 26.4994 32.5606 26.863L34.2571 36.7256C34.3308 37.1423 34.2863 37.5713 34.1284 37.9639C33.9705 38.3565 33.7057 38.6969 33.364 38.9465C33.0223 39.1962 32.6175 39.3449 32.1955 39.3759C31.7735 39.4069 31.3512 39.319 30.9767 39.122Z" stroke="#01FF01" stroke-width="2" stroke-linecap="round" stroke-linejoin="round"/>
</svg>
