<svg width="52" height="52" viewBox="0 0 52 52" fill="none" xmlns="http://www.w3.org/2000/svg">
<path d="M35.9387 44.9306L27.0727 40.2722C26.743 40.0936 26.3762 40.0001 26.0012 40.0001C25.6263 40.0001 25.2573 40.0936 24.9277 40.2722L16.0595 44.9306C15.6849 45.1271 15.2626 45.2147 14.8408 45.1833C14.4189 45.152 14.0142 45.0029 13.6728 44.7531C13.3314 44.5033 13.0668 44.1628 12.9093 43.7701C12.7517 43.3775 12.7074 42.9486 12.7813 42.5321L14.4778 32.6737C14.542 32.3098 14.5157 31.9356 14.4012 31.5842C14.2868 31.2329 14.0876 30.915 13.8213 30.6587L6.65182 23.6691C6.34662 23.3741 6.13059 22.9991 6.02842 22.5871C5.92625 22.1752 5.94206 21.7427 6.07405 21.3393C6.20604 20.9359 6.44888 20.5777 6.77481 20.3058C7.10074 20.0339 7.49661 19.8591 7.91715 19.8016L17.6888 18.3781C18.0516 18.3242 18.3958 18.1825 18.6915 17.9654C18.9871 17.7483 19.2253 17.4623 19.3853 17.1322L23.9028 8.0864C24.0879 7.7035 24.3771 7.38051 24.7373 7.15449C25.0976 6.92848 25.5142 6.80859 25.9395 6.80859C26.3648 6.80859 26.7814 6.92848 27.1417 7.15449C27.5019 7.38051 27.7911 7.7035 27.9762 8.0864L32.5002 17.1322C32.6604 17.4626 32.8989 17.7487 33.1949 17.9659C33.491 18.183 33.8356 18.3245 34.1988 18.3781L44.1048 19.8016C44.5242 19.8614 44.9184 20.0379 45.2423 20.311C45.5662 20.584 45.8068 20.9426 45.9367 21.3459C46.0666 21.7491 46.0806 22.1808 45.9769 22.5915C45.8733 23.0023 45.6563 23.3757 45.3507 23.6691L38.179 30.6587C37.9146 30.9159 37.7167 31.2335 37.6023 31.5841C37.488 31.9348 37.4606 32.308 37.5225 32.6716L39.219 42.5342C39.2928 42.9509 39.2482 43.3799 39.0903 43.7725C38.9325 44.1651 38.6676 44.5055 38.3259 44.7551C37.9843 45.0047 37.5794 45.1535 37.1574 45.1845C36.7354 45.2155 36.3132 45.1275 35.9387 44.9306Z" stroke="#F2FF00" stroke-width="2" stroke-linecap="round" stroke-linejoin="round"/>
</svg>
