<svg width="64" height="64" viewBox="0 0 64 64" fill="none" xmlns="http://www.w3.org/2000/svg">
<path d="M54.3333 45C55.7478 45 57.1044 44.4381 58.1046 43.4379C59.1048 42.4377 59.6667 41.0812 59.6667 39.6667V10.3333C59.6667 8.91885 59.1048 7.56229 58.1046 6.5621C57.1044 5.5619 55.7478 5 54.3333 5H26.2267C27.16 6.62667 27.6667 8.46667 27.6667 10.3333H54.3333V39.6667H30.3333V45M41 18.3333V23.6667H25V58.3333H19.6667V42.3333H14.3333V58.3333H9V37H5V23.6667C5 22.2522 5.5619 20.8956 6.5621 19.8954C7.56229 18.8952 8.91885 18.3333 10.3333 18.3333H41ZM22.3333 10.3333C22.3333 11.7478 21.7714 13.1044 20.7712 14.1046C19.771 15.1048 18.4145 15.6667 17 15.6667C15.5855 15.6667 14.229 15.1048 13.2288 14.1046C12.2286 13.1044 11.6667 11.7478 11.6667 10.3333C11.6667 8.91885 12.2286 7.56229 13.2288 6.5621C14.229 5.5619 15.5855 5 17 5C18.4145 5 19.771 5.5619 20.7712 6.5621C21.7714 7.56229 22.3333 8.91885 22.3333 10.3333Z" fill="#43C914"/>
</svg>
