<svg width="40" height="55" viewBox="0 0 40 55" fill="none" xmlns="http://www.w3.org/2000/svg">
<path fill-rule="evenodd" clip-rule="evenodd" d="M21.7681 0.731952L31.7681 10.7318C32.1471 11.1109 32.3943 11.6017 32.4731 12.132C32.5518 12.6623 32.4581 13.2038 32.2056 13.6767C31.5881 14.8342 30.6231 15.6142 29.6806 16.1442L36.7681 23.2315C37.2368 23.7003 37.5 24.3361 37.5 24.999C37.5 25.6619 37.2368 26.2976 36.7681 26.7664C35.5731 27.9614 34.0631 28.6914 32.6831 29.1464L39.2681 35.7313C39.5695 36.0328 39.7888 36.4064 39.9051 36.8165C40.0215 37.2266 40.031 37.6597 39.9328 38.0746C39.8346 38.4894 39.6319 38.8723 39.344 39.1867C39.0562 39.5012 38.6927 39.7368 38.2881 39.8712C36.5581 40.4437 34.7756 40.8437 32.9906 41.2012C31.6356 41.4712 30.0531 41.7412 28.2906 41.9662L29.8731 46.7086C29.9983 47.0844 30.0324 47.4846 29.9725 47.8762C29.9127 48.2677 29.7607 48.6395 29.529 48.9608C29.2973 49.2821 28.9925 49.5437 28.6399 49.7241C28.2872 49.9046 27.8967 49.9986 27.5006 49.9985H12.5006C12.1045 49.9986 11.714 49.9046 11.3614 49.7241C11.0087 49.5437 10.704 49.2821 10.4723 48.9608C10.2406 48.6395 10.0886 48.2677 10.0287 47.8762C9.9689 47.4846 10.003 47.0844 10.1281 46.7086L11.7106 41.9662C10.1355 41.7665 8.56784 41.5114 7.01066 41.2012C5.67405 40.9334 4.34738 40.6182 3.03317 40.2562L1.70817 39.8712C1.30397 39.7362 0.940978 39.5002 0.653666 39.1855C0.366354 38.8707 0.16426 38.4878 0.0665727 38.073C-0.0311142 37.6582 -0.0211506 37.2254 0.0955179 36.8155C0.212186 36.4057 0.431687 36.0324 0.733175 35.7313L7.31816 29.1464C5.93816 28.6939 4.42817 27.9614 3.23317 26.7664C2.76449 26.2976 2.5012 25.6619 2.5012 24.999C2.5012 24.3361 2.76449 23.7003 3.23317 23.2315L10.3206 16.1442C9.37815 15.6142 8.41315 14.8342 7.79566 13.6767C7.54319 13.2038 7.44942 12.6623 7.5282 12.132C7.60697 11.6017 7.85411 11.1109 8.23316 10.7318L18.2331 0.731952C18.7019 0.263283 19.3377 0 20.0006 0C20.6635 0 21.2993 0.263283 21.7681 0.731952ZM23.1731 42.4186C21.4053 42.5059 19.6347 42.5209 17.8656 42.4636L16.8281 42.4186L15.9681 44.9986H24.0331L23.1731 42.4186ZM20.0006 6.03435L13.8206 12.2142L14.0706 12.2867L14.5381 12.3942L15.2281 12.5092C16.1856 12.6092 17.0206 13.2342 17.3531 14.1467C17.5149 14.5938 17.5457 15.0778 17.4421 15.5418C17.3385 16.0059 17.1047 16.4308 16.7681 16.7666L9.07565 24.459C10.1332 24.784 11.3381 24.999 12.5056 24.999C12.9996 25.0001 13.4821 25.1475 13.8924 25.4225C14.3027 25.6976 14.6222 26.0881 14.8108 26.5446C14.9994 27.0012 15.0484 27.5033 14.9519 27.9877C14.8553 28.4721 14.6174 28.9171 14.2681 29.2664L7.36816 36.1688L8.65315 36.4263C11.5981 36.9812 15.5456 37.4987 20.0006 37.4987C23.5713 37.4922 27.1346 37.1761 30.6506 36.5538L32.0106 36.2963L32.6356 36.1688L25.7331 29.2689C25.4014 28.9372 25.1697 28.5189 25.0645 28.0618C24.9593 27.6047 24.9849 27.1272 25.1382 26.684C25.2915 26.2407 25.5665 25.8495 25.9316 25.555C26.2968 25.2606 26.7374 25.0748 27.2031 25.019L27.4981 24.999C28.6602 24.9792 29.8138 24.7975 30.9256 24.459L23.2331 16.7666C22.9166 16.4502 22.6907 16.0546 22.5793 15.6211C22.4678 15.1877 22.4747 14.7322 22.5994 14.3023C22.724 13.8724 22.9618 13.4839 23.2879 13.1773C23.614 12.8707 24.0164 12.6572 24.4531 12.5592L25.2606 12.4342L25.6906 12.3442C25.8473 12.3109 26.0106 12.2676 26.1806 12.2142L20.0006 6.03435Z" fill="white"/>
</svg>
