<svg width="46" height="46" viewBox="0 0 46 46" fill="none" xmlns="http://www.w3.org/2000/svg">
<path d="M11.5 40.25V36.4167C11.5 34.3833 12.3077 32.4333 13.7455 30.9955C15.1833 29.5577 17.1333 28.75 19.1667 28.75H26.8333C28.8667 28.75 30.8167 29.5577 32.2545 30.9955C33.6923 32.4333 34.5 34.3833 34.5 36.4167V40.25M15.3333 13.4167C15.3333 15.45 16.1411 17.4 17.5788 18.8378C19.0166 20.2756 20.9667 21.0833 23 21.0833C25.0333 21.0833 26.9834 20.2756 28.4212 18.8378C29.8589 17.4 30.6667 15.45 30.6667 13.4167C30.6667 11.3833 29.8589 9.43329 28.4212 7.99551C26.9834 6.55774 25.0333 5.75 23 5.75C20.9667 5.75 19.0166 6.55774 17.5788 7.99551C16.1411 9.43329 15.3333 11.3833 15.3333 13.4167Z" stroke="#01FF01" stroke-width="3.83333" stroke-linecap="round" stroke-linejoin="round"/>
</svg>
