<svg width="32" height="32" viewBox="0 0 32 32" fill="none" xmlns="http://www.w3.org/2000/svg">
<path d="M15.9997 5.33203C17.4142 5.33203 18.7707 5.89393 19.7709 6.89413C20.7711 7.89432 21.333 9.25088 21.333 10.6654C21.333 12.0799 20.7711 13.4364 19.7709 14.4366C18.7707 15.4368 17.4142 15.9987 15.9997 15.9987C14.5852 15.9987 13.2286 15.4368 12.2284 14.4366C11.2282 13.4364 10.6663 12.0799 10.6663 10.6654C10.6663 9.25088 11.2282 7.89432 12.2284 6.89413C13.2286 5.89393 14.5852 5.33203 15.9997 5.33203ZM15.9997 18.6654C21.893 18.6654 26.6663 21.052 26.6663 23.9987V26.6654H5.33301V23.9987C5.33301 21.052 10.1063 18.6654 15.9997 18.6654Z" fill="black"/>
</svg>
