<svg width="46" height="46" viewBox="0 0 46 46" fill="none" xmlns="http://www.w3.org/2000/svg">
<path fill-rule="evenodd" clip-rule="evenodd" d="M36.7692 9.41499L22.9998 9.10449L9.23051 9.41499C7.99296 9.44339 6.80297 9.89722 5.86079 10.7001C4.91862 11.503 4.28177 12.6059 4.05743 13.8233C2.9431 19.8899 2.9431 26.1088 4.05743 32.1754C4.28184 33.3931 4.91897 34.4963 5.86153 35.2992C6.8041 36.1021 7.99455 36.5558 9.23243 36.5837L22.9998 36.8962L36.7692 36.5857C38.0067 36.5573 39.1967 36.1034 40.1389 35.3005C41.0811 34.4976 41.7179 33.3947 41.9423 32.1773C43.0558 26.1092 43.0558 19.8915 41.9423 13.8252C41.7178 12.6076 41.0807 11.5044 40.1381 10.7014C39.1956 9.89851 38.0051 9.44487 36.7673 9.41691M9.29568 12.29L22.9998 11.9795L36.704 12.29C37.8923 12.3168 38.8986 13.1736 39.1133 14.3447C39.4071 15.9444 39.6193 17.5519 39.7496 19.167H6.24818C6.37723 17.5519 6.58935 15.9444 6.88451 14.3447C6.98918 13.7773 7.28604 13.2633 7.72517 12.8891C8.16429 12.5149 8.71889 12.3033 9.29568 12.29ZM6.09676 23.0003C6.09676 25.8983 6.35935 28.7944 6.88643 31.656C7.10109 32.8252 8.10735 33.6838 9.29568 33.7107L22.9998 34.0212L36.704 33.7107C37.2805 33.6969 37.8346 33.4851 38.2733 33.111C38.7121 32.7368 39.0087 32.223 39.1133 31.656C39.6403 28.7944 39.9029 25.8983 39.9029 23.0003H6.09676Z" fill="#01FF01"/>
</svg>
