<svg width="48" height="48" viewBox="0 0 48 48" fill="none" xmlns="http://www.w3.org/2000/svg">
<path d="M24 18.0004V26.0004M24 32.0004H24.02M20.726 7.18238L4.51397 34.2504C4.17976 34.8291 4.00291 35.4853 4.00099 36.1537C3.99908 36.822 4.17217 37.4792 4.50306 38.0598C4.83395 38.6405 5.3111 39.1244 5.88705 39.4635C6.463 39.8025 7.11768 39.9849 7.78597 39.9924H40.214C40.882 39.9847 41.5363 39.8023 42.112 39.4634C42.6877 39.1244 43.1646 38.6407 43.4954 38.0604C43.8263 37.48 43.9995 36.8231 43.9978 36.1551C43.9961 35.4871 43.8197 34.8311 43.486 34.2524L27.274 7.18038C26.9329 6.61739 26.4524 6.15186 25.8789 5.82877C25.3054 5.50568 24.6582 5.33594 24 5.33594C23.3417 5.33594 22.6946 5.50568 22.1211 5.82877C21.5476 6.15186 21.0671 6.61739 20.726 7.18038V7.18238Z" stroke="#01FF01" stroke-width="3.33" stroke-linecap="round" stroke-linejoin="round"/>
</svg>
