<svg width="48" height="48" viewBox="0 0 48 48" fill="none" xmlns="http://www.w3.org/2000/svg">
<path d="M37 38L34 36.8V32M21 40H10C8.93913 40 7.92172 39.5786 7.17157 38.8284C6.42143 38.0783 6 37.0609 6 36C6 33.3478 7.05357 30.8043 8.92893 28.9289C10.8043 27.0536 13.3478 26 16 26H25M28 12C28 14.1217 27.1571 16.1566 25.6569 17.6569C24.1566 19.1571 22.1217 20 20 20C17.8783 20 15.8434 19.1571 14.3431 17.6569C12.8429 16.1566 12 14.1217 12 12C12 9.87827 12.8429 7.84344 14.3431 6.34315C15.8434 4.84285 17.8783 4 20 4C22.1217 4 24.1566 4.84285 25.6569 6.34315C27.1571 7.84344 28 9.87827 28 12ZM26 36C26 38.1217 26.8429 40.1566 28.3431 41.6569C29.8434 43.1571 31.8783 44 34 44C36.1217 44 38.1566 43.1571 39.6569 41.6569C41.1571 40.1566 42 38.1217 42 36C42 33.8783 41.1571 31.8434 39.6569 30.3431C38.1566 28.8429 36.1217 28 34 28C31.8783 28 29.8434 28.8429 28.3431 30.3431C26.8429 31.8434 26 33.8783 26 36Z" stroke="white" stroke-width="3" stroke-linecap="round" stroke-linejoin="round"/>
</svg>
