<svg width="48" height="48" viewBox="0 0 48 48" fill="none" xmlns="http://www.w3.org/2000/svg">
<path fill-rule="evenodd" clip-rule="evenodd" d="M14 4C13.4981 3.99977 13.0146 4.18823 12.6452 4.52796C12.2758 4.8677 12.0477 5.33388 12.006 5.834L11.15 16.118C11.1274 16.3891 11.0498 16.6527 10.9219 16.8927C10.794 17.1327 10.6184 17.3441 10.406 17.514L7.502 19.838C7.03362 20.2125 6.65545 20.6875 6.39546 21.2279C6.13547 21.7684 6.00031 22.3603 6 22.96V40C6 41.0609 6.42143 42.0783 7.17157 42.8284C7.92172 43.5786 8.93913 44 10 44H22C23.0609 44 24.0783 43.5786 24.8284 42.8284C25.5786 42.0783 26 41.0609 26 40V22.96C25.9999 22.3605 25.8651 21.7686 25.6054 21.2282C25.3458 20.6878 24.968 20.2127 24.5 19.838L21.594 17.514C21.3816 17.3441 21.206 17.1327 21.0781 16.8927C20.9502 16.6527 20.8726 16.3891 20.85 16.118L19.994 5.834C19.9523 5.33388 19.7242 4.8677 19.3548 4.52796C18.9854 4.18823 18.5019 3.99977 18 4H14ZM15.136 16.45L15.84 8H16.16L16.864 16.45C16.9317 17.2632 17.1646 18.054 17.5483 18.774C17.9321 19.4941 18.4587 20.1284 19.096 20.638L22 22.96V40H10V22.96L12.904 20.638C13.5413 20.1284 14.0679 19.4941 14.4517 18.774C14.8354 18.054 15.0683 17.2632 15.136 16.45ZM30.99 16C30.2339 15.9996 29.503 16.2721 28.9317 16.7674C28.3603 17.2627 27.9869 17.9475 27.88 18.696L26.868 25.776C26.6221 27.4963 27.006 29.2476 27.949 30.7074C28.892 32.1671 30.3306 33.237 32 33.72V40H31C30.4696 40 29.9609 40.2107 29.5858 40.5858C29.2107 40.9609 29 41.4696 29 42C29 42.5304 29.2107 43.0391 29.5858 43.4142C29.9609 43.7893 30.4696 44 31 44H37C37.5304 44 38.0391 43.7893 38.4142 43.4142C38.7893 43.0391 39 42.5304 39 42C39 41.4696 38.7893 40.9609 38.4142 40.5858C38.0391 40.2107 37.5304 40 37 40H36V33.72C37.669 33.237 39.1073 32.1674 40.0503 30.7081C40.9933 29.2488 41.3774 27.498 41.132 25.778L40.12 18.698C40.0135 17.9491 39.6403 17.2638 39.0689 16.7681C38.4975 16.2725 37.7664 15.9997 37.01 16H30.99ZM30.83 26.344L31.732 20H36.264L37.17 26.344C37.2347 26.7983 37.201 27.2613 37.0713 27.7015C36.9416 28.1417 36.7188 28.5489 36.418 28.8955C36.1172 29.2421 35.7455 29.5201 35.328 29.7106C34.9105 29.9011 34.4569 29.9997 33.998 29.9997C33.5391 29.9997 33.0855 29.9011 32.668 29.7106C32.2505 29.5201 31.8788 29.2421 31.578 28.8955C31.2772 28.5489 31.0544 28.1417 30.9247 27.7015C30.795 27.2613 30.7613 26.7983 30.826 26.344" fill="white"/>
</svg>
