<svg width="48" height="48" viewBox="0 0 48 48" fill="none" xmlns="http://www.w3.org/2000/svg">
<path d="M12 30C11.4696 30 10.9609 29.7893 10.5858 29.4142C10.2107 29.0391 10 28.5304 10 28V20C10 19.4696 10.2107 18.9609 10.5858 18.5858C10.9609 18.2107 11.4696 18 12 18H24V30H12Z" fill="white"/>
<path fill-rule="evenodd" clip-rule="evenodd" d="M36 12H10C8.4087 12 6.88258 12.6321 5.75736 13.7574C4.63214 14.8826 4 16.4087 4 18V30C4 31.5913 4.63214 33.1174 5.75736 34.2426C6.88258 35.3679 8.4087 36 10 36H36C37.5913 36 39.1174 35.3679 40.2426 34.2426C41.3679 33.1174 42 31.5913 42 30C42.5304 30 43.0391 29.7893 43.4142 29.4142C43.7893 29.0391 44 28.5304 44 28V20C44 19.4696 43.7893 18.9609 43.4142 18.5858C43.0391 18.2107 42.5304 18 42 18C42 16.4087 41.3679 14.8826 40.2426 13.7574C39.1174 12.6321 37.5913 12 36 12ZM36 16H10C9.46957 16 8.96086 16.2107 8.58579 16.5858C8.21071 16.9609 8 17.4696 8 18V30C8 30.5304 8.21071 31.0391 8.58579 31.4142C8.96086 31.7893 9.46957 32 10 32H36C36.5304 32 37.0391 31.7893 37.4142 31.4142C37.7893 31.0391 38 30.5304 38 30V18C38 17.4696 37.7893 16.9609 37.4142 16.5858C37.0391 16.2107 36.5304 16 36 16Z" fill="white"/>
</svg>
