<svg width="78" height="72" viewBox="0 0 78 72" fill="none" xmlns="http://www.w3.org/2000/svg">
<path d="M37.8901 17.292L39.8061 18.332L41.4061 19.202M35.6201 19.912L35.7601 24.596M50.2401 23.998L66.5661 32.862M63.9301 28.626C64.6057 28.3931 65.3271 28.325 66.0344 28.4273C66.7416 28.5296 67.4142 28.7994 67.9961 29.2142C68.578 29.629 69.0523 30.1768 69.3797 30.812C69.7071 31.4472 69.8779 32.1514 69.8781 32.866C69.8723 33.455 69.7506 34.037 69.5199 34.579C69.2891 35.1209 68.9539 35.6121 68.5334 36.0245C68.1128 36.4369 67.6152 36.7624 67.0688 36.9824C66.5224 37.2025 65.9381 37.3128 65.3491 37.307C64.7601 37.3012 64.1781 37.1795 63.6361 36.9488C63.0942 36.718 62.603 36.3828 62.1906 35.9623C61.7782 35.5417 61.4527 35.044 61.2327 34.4977C61.0126 33.9513 60.9023 33.367 60.9081 32.778" stroke="#01FF01" stroke-width="2" stroke-linecap="round" stroke-linejoin="round"/>
<path d="M57.8943 25.3601C59.6309 23.6255 61.9151 22.5467 64.3579 22.3074C66.8006 22.0681 69.2508 22.6831 71.291 24.0477C73.3312 25.4122 74.8351 27.4419 75.5467 29.7909C76.2583 32.14 76.1334 34.6631 75.1934 36.9304C74.2533 39.1977 72.5563 41.0689 70.3913 42.2254C68.2264 43.3818 65.7275 43.7519 63.3203 43.2726C60.9131 42.7932 58.7466 41.4942 57.1898 39.5966C55.6329 37.6991 54.7822 35.3205 54.7823 32.8661C54.7823 31.7981 54.9423 30.736 55.2623 29.716M32.1143 53.7721C33.1823 55.4661 33.7483 57.4261 33.7483 59.4281C33.7485 61.7527 32.9852 64.013 31.5758 65.8616C30.1664 67.7103 28.1889 69.0449 25.9472 69.6603C23.7056 70.2757 21.3238 70.1379 19.1681 69.268C17.0124 68.3982 15.202 66.8444 14.0152 64.8455C12.8284 62.8467 12.3309 60.5134 12.5992 58.2043C12.8675 55.8952 13.8867 53.7382 15.5002 52.0647C17.1137 50.3912 19.2321 49.2939 21.5298 48.9415C23.8276 48.5891 26.1775 49.001 28.2183 50.114" stroke="#01FF01" stroke-width="2" stroke-linecap="round" stroke-linejoin="round"/>
<path d="M27.606 59.0422C27.6533 59.6426 27.5792 60.2465 27.3881 60.8176C27.197 61.3888 26.8928 61.9156 26.4936 62.3666C26.0944 62.8176 25.6085 63.1835 25.0648 63.4426C24.5211 63.7017 23.9307 63.8486 23.329 63.8745C22.7273 63.9005 22.1265 63.8049 21.5625 63.5936C20.9985 63.3823 20.4829 63.0595 20.0464 62.6445C19.6099 62.2295 19.2614 61.7309 19.0219 61.1783C18.7823 60.6257 18.6565 60.0305 18.652 59.4282C18.6512 58.8389 18.7667 58.2552 18.9919 57.7106C19.217 57.166 19.5474 56.6711 19.9642 56.2544C20.3809 55.8377 20.8757 55.5073 21.4203 55.2821C21.965 55.0569 22.5487 54.9414 23.138 54.9422C23.4233 54.9422 23.7053 54.9689 23.984 55.0222M31.28 50.7142L23.744 59.4862M22.874 36.1922L2 47.7082C12.122 42.5822 12.868 40.8782 19.192 44.7082L27.498 44.7582M59.6 16.8522L53.892 16.7822L35.912 24.8382L33.636 27.4962M12.112 46.3802L24.04 44.9162" stroke="#01FF01" stroke-width="2" stroke-linecap="round" stroke-linejoin="round"/>
<path d="M41.7985 22.3545L47.6225 22.5385L47.6025 31.7125L45.6485 32.1525L43.4745 28.8985L40.3405 29.1345L35.7405 33.2625L35.2305 38.5165M47.6565 21.9245L53.9405 17.1445M38.2685 40.8265C38.5734 40.3569 39.0221 39.9986 39.5476 39.8053C40.0731 39.612 40.647 39.5941 41.1836 39.7541C41.7201 39.9142 42.1904 40.2437 42.524 40.6934C42.8577 41.143 43.0368 41.6886 43.0345 42.2485M38.9205 49.0965L45.8605 44.5565C46.0818 44.1845 46.2745 43.7999 46.4385 43.4025M38.6145 38.0105C40.0545 36.9505 41.4145 36.4345 42.7625 36.0025C48.3465 34.2125 51.4505 40.8125 46.3685 41.3305" stroke="#01FF01" stroke-width="2" stroke-linecap="round" stroke-linejoin="round"/>
<path d="M31.3641 34.8162C30.4281 32.0242 32.3441 30.3882 29.3721 27.5322C28.7521 26.9342 26.0761 25.7962 24.4401 25.8282L20.4141 24.5822C22.6621 22.6562 25.5641 21.0282 26.6701 18.5822M26.9161 15.0442C28.8881 15.5542 30.8921 15.6482 32.4561 15.6742M40.4861 43.4862C40.3061 44.4962 40.3641 45.8982 38.2561 46.2882L30.8361 47.6642C29.5621 47.9002 30.0301 45.4842 29.8581 43.6682C28.4041 41.0322 28.4621 39.9642 27.2861 38.1982L27.1821 36.3142L32.1001 34.7862C32.4261 35.8022 32.4321 36.8622 33.3801 37.7922L33.0921 40.4402C33.5987 41.3189 34.1121 42.1522 34.6321 42.9402C36.4941 42.8602 37.9121 43.9002 40.4861 43.4862ZM32.5461 15.5622L32.6461 17.0702C33.6061 16.9542 34.2061 17.2062 34.7101 17.5562C36.1101 17.4362 36.8841 17.1082 37.9121 16.8642C38.5921 15.1262 36.8921 14.3542 34.8221 14.6902C34.2421 15.2662 33.4981 15.5842 32.5461 15.5622Z" stroke="#01FF01" stroke-width="2" stroke-linecap="round" stroke-linejoin="round"/>
<path d="M32.5716 16.8305C29.6416 17.9165 27.0916 19.0365 24.0876 17.9445L23.3936 14.8565L25.1576 11.7885C26.0876 10.1685 28.2576 10.3665 28.9536 11.2765C29.9536 12.5805 29.1696 13.9825 27.8236 15.2365" stroke="#01FF01" stroke-width="2" stroke-linecap="round" stroke-linejoin="round"/>
<path d="M28.276 10.7602C25.664 8.44415 20.722 13.3302 17.896 16.1962C15.716 18.4102 14.624 21.1982 13.416 24.0442L13.728 27.8422C15.192 30.9262 22.394 32.3162 25.764 32.0182C26.192 33.5142 26.416 35.0442 27.43 36.4442M13.97 27.6762L20.92 24.4322M26.6 7.53215C30.33 8.10615 32.08 11.1342 34.306 13.6882L36.694 11.6622C38.174 9.84616 34.43 10.5742 33.138 7.30416L33.28 6.76616C33.524 5.84816 35.314 6.21615 38.126 7.21615L40.686 6.02416C37.406 4.34016 31.314 0.522155 28.69 2.53616C27.078 3.77416 26.53 5.91815 26.6 7.53215Z" stroke="#01FF01" stroke-width="2" stroke-linecap="round" stroke-linejoin="round"/>
<path d="M24.8203 21.606C26.4043 22.182 29.1203 21.058 31.3543 20.12C32.8003 19.512 33.6503 20.654 35.4023 20.046" stroke="#01FF01" stroke-width="2" stroke-linecap="round" stroke-linejoin="round"/>
</svg>
