<svg width="43" height="43" viewBox="0 0 43 43" fill="none" xmlns="http://www.w3.org/2000/svg">
<path d="M30.2223 15.1107C31.6951 15.1107 32.889 13.9168 32.889 12.444C32.889 10.9713 31.6951 9.77734 30.2223 9.77734C28.7496 9.77734 27.5557 10.9713 27.5557 12.444C27.5557 13.9168 28.7496 15.1107 30.2223 15.1107Z" fill="white"/>
<path d="M28.4441 5.33203C33.3508 5.33203 37.333 9.31425 37.333 14.2209V28.4431C37.333 33.3498 33.3508 37.332 28.4441 37.332H14.2219C9.31523 37.332 5.33301 33.3498 5.33301 28.4431V14.2209C5.33301 9.31425 9.31523 5.33203 14.2219 5.33203H21.333H28.4441Z" stroke="white" stroke-width="2.66667" stroke-linecap="round" stroke-linejoin="round"/>
<path d="M21.3328 14.2207C25.2617 14.2207 28.4439 17.4029 28.4439 21.3318C28.4439 25.2607 25.2617 28.4429 21.3328 28.4429C17.4039 28.4429 14.2217 25.2607 14.2217 21.3318C14.2217 17.4029 17.4039 14.2207 21.3328 14.2207Z" stroke="white" stroke-width="2.66667" stroke-linecap="round" stroke-linejoin="round"/>
</svg>
