<svg width="41" height="40" viewBox="0 0 41 40" fill="none" xmlns="http://www.w3.org/2000/svg">
<g clip-path="url(#clip0_1_100)">
<path d="M32.1253 6.26843C34.8792 9.02198 36.4542 12.7386 36.5174 16.6325C36.5805 20.5263 35.1268 24.292 32.4636 27.1334L32.1253 27.4834C32.1253 27.4834 27.4284 31.4533 25.0536 34.5534C23.4908 36.5936 22.7865 40.0626 21.5186 40.1044C20.2508 40.1461 19.5477 36.5936 17.9853 34.5534C15.6105 31.4523 10.912 27.4818 10.912 27.4818C8.09892 24.6687 6.51855 20.8534 6.51855 16.8751C6.51855 12.8968 8.09892 9.08149 10.912 6.26843C13.725 3.45536 17.5404 1.875 21.5186 1.875C25.4969 1.875 29.3123 3.45536 32.1253 6.26843ZM21.5186 11.8751C20.862 11.8751 20.2119 12.0044 19.6052 12.2557C18.9986 12.507 18.4474 12.8753 17.9831 13.3396C17.5188 13.8039 17.1505 14.355 16.8993 14.9617C16.648 15.5683 16.5186 16.2185 16.5186 16.8751C16.5186 17.5317 16.648 18.1819 16.8993 18.7885C17.1505 19.3951 17.5188 19.9463 17.9831 20.4106C18.4474 20.8749 18.9986 21.2432 19.6052 21.4945C20.2119 21.7458 20.862 21.8751 21.5186 21.8751C22.8447 21.8751 24.1165 21.3483 25.0542 20.4106C25.9919 19.4729 26.5186 18.2012 26.5186 16.8751C26.5186 15.549 25.9919 14.2772 25.0542 13.3396C24.1165 12.4019 22.8447 11.8751 21.5186 11.8751Z" fill="#01FF01"/>
</g>
<defs>
<clipPath id="clip0_1_100">
<rect width="40.6604" height="40" fill="white"/>
</clipPath>
</defs>
</svg>
