<svg width="64" height="64" viewBox="0 0 64 64" fill="none" xmlns="http://www.w3.org/2000/svg">
<path d="M58.666 31.9999V53.3333C58.666 54.7477 58.1041 56.1043 57.1039 57.1045C56.1037 58.1047 54.7472 58.6666 53.3327 58.6666H10.666C9.25153 58.6666 7.89497 58.1047 6.89478 57.1045C5.89459 56.1043 5.33268 54.7477 5.33268 53.3333V31.9999C4.62544 31.9999 3.94716 31.719 3.44706 31.2189C2.94697 30.7188 2.66602 30.0405 2.66602 29.3333V21.3333C2.66602 19.9188 3.22792 18.5622 4.22811 17.562C5.22831 16.5618 6.58486 15.9999 7.99935 15.9999H16.4527C16.1513 15.1432 15.998 14.2414 15.9993 13.3333C15.9993 11.2115 16.8422 9.17669 18.3425 7.6764C19.8428 6.17611 21.8776 5.33325 23.9993 5.33325C26.666 5.33325 29.0127 6.66659 30.4793 8.63992V8.61325L31.9993 10.6666L33.5193 8.61325V8.63992C34.986 6.66659 37.3327 5.33325 39.9993 5.33325C42.1211 5.33325 44.1559 6.17611 45.6562 7.6764C47.1565 9.17669 47.9993 11.2115 47.9993 13.3333C48.0007 14.2414 47.8474 15.1432 47.546 15.9999H55.9993C57.4138 15.9999 58.7704 16.5618 59.7706 17.562C60.7708 18.5622 61.3327 19.9188 61.3327 21.3333V29.3333C61.3327 30.0405 61.0517 30.7188 60.5516 31.2189C60.0515 31.719 59.3733 31.9999 58.666 31.9999ZM10.666 53.3333H29.3327V31.9999H10.666V53.3333ZM53.3327 53.3333V31.9999H34.666V53.3333H53.3327ZM23.9993 10.6666C23.2921 10.6666 22.6138 10.9475 22.1137 11.4476C21.6136 11.9477 21.3327 12.626 21.3327 13.3333C21.3327 14.0405 21.6136 14.7188 22.1137 15.2189C22.6138 15.719 23.2921 15.9999 23.9993 15.9999C24.7066 15.9999 25.3849 15.719 25.885 15.2189C26.3851 14.7188 26.666 14.0405 26.666 13.3333C26.666 12.626 26.3851 11.9477 25.885 11.4476C25.3849 10.9475 24.7066 10.6666 23.9993 10.6666ZM39.9993 10.6666C39.2921 10.6666 38.6138 10.9475 38.1137 11.4476C37.6136 11.9477 37.3327 12.626 37.3327 13.3333C37.3327 14.0405 37.6136 14.7188 38.1137 15.2189C38.6138 15.719 39.2921 15.9999 39.9993 15.9999C40.7066 15.9999 41.3849 15.719 41.885 15.2189C42.3851 14.7188 42.666 14.0405 42.666 13.3333C42.666 12.626 42.3851 11.9477 41.885 11.4476C41.3849 10.9475 40.7066 10.6666 39.9993 10.6666ZM7.99935 21.3333V26.6666H29.3327V21.3333H7.99935ZM34.666 21.3333V26.6666H55.9993V21.3333H34.666Z" fill="white"/>
</svg>
