<svg width="48" height="48" viewBox="0 0 48 48" fill="none" xmlns="http://www.w3.org/2000/svg">
<path d="M20.9 31C21.7 31.8 22.7334 32.192 24 32.176C25.2667 32.16 26.2 31.7013 26.8 30.8L35.25 18.15C35.55 17.6833 35.5087 17.258 35.126 16.874C34.7433 16.49 34.318 16.4487 33.85 16.75L21.2 25.2C20.3 25.8 19.8254 26.7167 19.776 27.95C19.7267 29.1833 20.1013 30.2 20.9 31ZM24 8C25.2 8 26.3834 8.1 27.55 8.3C28.7167 8.5 29.85 8.81667 30.95 9.25C31.4833 9.45 32.05 9.82533 32.65 10.376C33.25 10.9267 33.4167 11.4513 33.15 11.95C32.8833 12.4487 32.2833 12.782 31.35 12.95C30.4167 13.118 29.6667 13.1013 29.1 12.9C28.2667 12.6 27.4254 12.3753 26.576 12.226C25.7267 12.0767 24.868 12.0013 24 12C19.5667 12 15.7914 13.5587 12.674 16.676C9.55671 19.7933 7.99867 23.568 8 28C8 29.4 8.19202 30.7833 8.57602 32.15C8.96002 33.5167 9.50135 34.8 10.2 36H37.8C38.5667 34.7333 39.1253 33.4167 39.476 32.05C39.8267 30.6833 40.0014 29.2667 40 27.8C40 26.9333 39.9247 26.0833 39.774 25.25C39.6234 24.4167 39.3987 23.6 39.1 22.8C38.9 22.2333 38.8667 21.6833 39 21.15C39.1333 20.6167 39.4334 20.1667 39.9 19.8C40.3334 19.4667 40.8087 19.3667 41.326 19.5C41.8434 19.6333 42.2014 19.9333 42.4 20.4C42.9 21.5667 43.2834 22.7587 43.55 23.976C43.8167 25.1933 43.9667 26.4347 44 27.7C44.0334 29.6 43.8167 31.4167 43.35 33.15C42.8834 34.8833 42.2 36.5333 41.3 38.1C40.9334 38.7 40.4334 39.1667 39.8 39.5C39.1667 39.8333 38.5 40 37.8 40H10.2C9.50001 40 8.83335 39.8333 8.20001 39.5C7.56668 39.1667 7.06665 38.7 6.69998 38.1C5.83332 36.6 5.16665 35.0087 4.69998 33.326C4.23332 31.6433 4 29.868 4 28C4 25.2333 4.52532 22.642 5.57599 20.226C6.62666 17.81 8.06001 15.6933 9.87601 13.876C11.692 12.0587 13.8167 10.6253 16.25 9.576C18.6833 8.52667 21.2667 8.00133 24 8Z" fill="white"/>
</svg>
