<svg width="32" height="32" viewBox="0 0 32 32" fill="none" xmlns="http://www.w3.org/2000/svg">
<path d="M22.1162 27.6491L16.6602 24.7825C16.4573 24.6725 16.2316 24.615 16.0008 24.615C15.7701 24.615 15.543 24.6725 15.3402 24.7825L9.88284 27.6491C9.6523 27.7701 9.39247 27.824 9.13285 27.8047C8.87322 27.7854 8.62421 27.6937 8.41411 27.5399C8.204 27.3862 8.04121 27.1766 7.94424 26.935C7.84726 26.6934 7.81998 26.4295 7.8655 26.1731L8.9095 20.1065C8.94901 19.8825 8.93283 19.6522 8.86238 19.436C8.79192 19.2198 8.66937 19.0242 8.5055 18.8665L4.0935 14.5651C3.90569 14.3836 3.77275 14.1529 3.70987 13.8993C3.647 13.6458 3.65673 13.3797 3.73795 13.1314C3.81918 12.8832 3.96862 12.6628 4.16919 12.4954C4.36976 12.3281 4.61337 12.2206 4.87217 12.1851L10.8855 11.3091C11.1088 11.276 11.3206 11.1888 11.5025 11.0552C11.6845 10.9216 11.831 10.7456 11.9295 10.5425L14.7095 4.9758C14.8234 4.74016 15.0014 4.5414 15.223 4.40231C15.4447 4.26323 15.7011 4.18945 15.9628 4.18945C16.2245 4.18945 16.4809 4.26323 16.7026 4.40231C16.9243 4.5414 17.1023 4.74016 17.2162 4.9758L20.0002 10.5425C20.0988 10.7457 20.2455 10.9219 20.4277 11.0555C20.6099 11.1891 20.822 11.2762 21.0455 11.3091L27.1415 12.1851C27.3996 12.2219 27.6421 12.3306 27.8415 12.4986C28.0408 12.6666 28.1889 12.8873 28.2688 13.1355C28.3488 13.3836 28.3573 13.6492 28.2936 13.902C28.2298 14.1548 28.0963 14.3846 27.9082 14.5651L23.4948 18.8665C23.3321 19.0247 23.2103 19.2202 23.14 19.4359C23.0696 19.6517 23.0527 19.8814 23.0908 20.1051L24.1348 26.1745C24.1802 26.4309 24.1528 26.6949 24.0557 26.9365C23.9585 27.1781 23.7955 27.3876 23.5853 27.5412C23.375 27.6948 23.1259 27.7863 22.8662 27.8054C22.6065 27.8245 22.3466 27.7703 22.1162 27.6491Z" fill="#F2FF00" stroke="#F2FF00" stroke-width="4" stroke-linecap="round" stroke-linejoin="round"/>
</svg>
