<svg width="64" height="64" viewBox="0 0 64 64" fill="none" xmlns="http://www.w3.org/2000/svg">
<path d="M9.54931 9.54936C21.9488 -2.85013 42.0511 -2.85013 54.4506 9.54936C66.8501 21.9489 66.8501 42.0511 54.4506 54.4506C42.0511 66.8501 21.9488 66.8501 9.54931 54.4506C-2.85018 42.0511 -2.85018 21.9489 9.54931 9.54936ZM20.5095 29.561C19.8626 30.208 19.4985 31.0851 19.4985 32C19.4985 32.9149 19.8626 33.792 20.5095 34.439C21.1563 35.0858 22.0336 35.4498 22.9484 35.4499C23.8633 35.4499 24.7411 35.0865 25.3881 34.4397L28.55 31.2777L28.5507 41.0467C28.5428 41.5046 28.6255 41.9596 28.7952 42.3849C28.9649 42.8104 29.2178 43.1983 29.5389 43.525C29.86 43.8517 30.2434 44.1116 30.6658 44.2887C31.0883 44.4658 31.5419 44.5567 32 44.5567C32.458 44.5567 32.9116 44.4658 33.3341 44.2887C33.7565 44.1116 34.1399 43.8517 34.461 43.525C34.7821 43.1983 35.035 42.8104 35.2047 42.3849C35.3739 41.9609 35.4565 41.5073 35.4492 41.0508V31.277L38.6118 34.4397C39.2588 35.0865 40.1366 35.4499 41.0515 35.4499C41.9663 35.4498 42.8436 35.0858 43.4904 34.439C44.1373 33.792 44.5014 32.9149 44.5014 32C44.5014 31.0851 44.1373 30.208 43.4904 29.561L34.4389 20.5095C33.7919 19.8627 32.9148 19.4986 32 19.4986C31.0851 19.4986 30.208 19.8627 29.561 20.5095L20.5095 29.561Z" fill="white" stroke="black" stroke-width="0.5"/>
</svg>
