<svg width="43" height="43" viewBox="0 0 43 43" fill="none" xmlns="http://www.w3.org/2000/svg">
<path d="M7.82641 7.82958C7.07373 8.5932 6.57923 9.66534 6.30354 11.7024C6.02128 13.8139 6.0191 16.6102 6.0191 20.634V22.0343C6.0191 26.0515 6.02128 28.8456 6.30354 30.9549C6.57705 32.9942 7.07373 34.0729 7.8286 34.843C8.59441 35.5935 9.66655 36.0902 11.7014 36.3637C13.8129 36.646 16.6092 36.6504 20.633 36.6504H22.0333C26.0506 36.6504 28.8447 36.646 30.9561 36.3637C32.9932 36.0902 34.0719 35.5935 34.8421 34.8387C35.5926 34.0751 36.0893 33.0029 36.3628 30.9659C36.6472 28.8544 36.6494 26.0581 36.6494 22.0343V20.634C36.6494 16.6167 36.645 13.8226 36.3649 11.7133C36.0893 9.67409 35.5926 8.59539 34.8377 7.8252C34.0741 7.07471 33.0019 6.57802 30.9649 6.30452C28.8534 6.02226 26.0571 6.01789 22.0333 6.01789H20.633C16.6157 6.01789 13.8216 6.02226 11.7124 6.30452C9.67311 6.57802 8.5966 7.07471 7.82641 7.82958ZM20.633 1.64182H22.0333C25.195 1.64182 28.4049 1.54773 31.5447 1.96783C34.0741 2.30698 36.2162 3.03122 37.9272 4.72476L37.9447 4.74445C39.6361 6.45987 40.3625 8.60195 40.7016 11.1335C41.1195 14.269 41.0255 17.4766 41.0255 20.634V22.0343C41.0255 25.1938 41.1217 28.4037 40.6994 31.5457C40.3625 34.0751 39.6361 36.2171 37.9425 37.9282L37.9228 37.9457C36.2096 39.637 34.0675 40.3613 31.5338 40.7026C28.3983 41.1205 25.1907 41.0264 22.0333 41.0264H20.633C17.4735 41.0264 14.2636 41.1205 11.1238 40.7004C8.59223 40.3613 6.45014 39.637 4.74128 37.9435L4.72159 37.9238C3.03243 36.2084 2.306 34.0663 1.96686 31.5347C1.54675 28.4015 1.64084 25.1938 1.64084 22.0343V20.634C1.64084 17.4744 1.54675 14.2646 1.96905 11.1226C2.306 8.5932 3.03243 6.45112 4.72597 4.74007L4.74347 4.72257C6.45889 3.03122 8.60098 2.30698 11.1325 1.96565C14.2702 1.54992 17.4778 1.64182 20.633 1.64182ZM8.28371 13.6279C8.49376 23.8679 13.6138 30.0119 22.5935 30.0119H23.1186V24.1567C26.4138 24.4849 28.9081 26.9005 29.9059 30.0119H34.5664C34.0886 28.2437 33.2413 26.597 32.0804 25.1804C30.9195 23.7638 29.4714 22.6095 27.8316 21.7936C29.3007 20.8987 30.5695 19.7105 31.5589 18.3033C32.5482 16.8961 33.2368 15.3 33.5818 13.6147H29.3545C28.4355 16.8705 25.7048 19.8244 23.1186 20.1001V13.6279H18.8782V24.9706C16.2525 24.3142 12.9442 21.1372 12.7998 13.6279H8.28371Z" fill="white"/>
</svg>
