<svg width="48" height="48" viewBox="0 0 48 48" fill="none" xmlns="http://www.w3.org/2000/svg">
<path d="M24 6C26.1217 6 28.1566 6.84285 29.6569 8.34315C31.1571 9.84344 32 11.8783 32 14C32 15.46 31.62 16.82 30.92 18H36C37.9 18 39.5 19.34 39.9 21.12C43.92 37.14 44 37.56 44 38C44 39.0609 43.5786 40.0783 42.8284 40.8284C42.0783 41.5786 41.0609 42 40 42H8C6.93913 42 5.92172 41.5786 5.17157 40.8284C4.42143 40.0783 4 39.0609 4 38C4 37.56 4.08 37.14 8.1 21.12C8.5 19.34 10.1 18 12 18H17.08C16.366 16.7884 15.9928 15.4063 16 14C16 11.8783 16.8429 9.84344 18.3431 8.34315C19.8434 6.84285 21.8783 6 24 6ZM24 10C22.9391 10 21.9217 10.4214 21.1716 11.1716C20.4214 11.9217 20 12.9391 20 14C20 15.0609 20.4214 16.0783 21.1716 16.8284C21.9217 17.5786 22.9391 18 24 18C25.0609 18 26.0783 17.5786 26.8284 16.8284C27.5786 16.0783 28 15.0609 28 14C28 12.9391 27.5786 11.9217 26.8284 11.1716C26.0783 10.4214 25.0609 10 24 10ZM12 22V38H16V33L18 35V38H22V34L18 30L22 26V22H18V25L16 27V22H12ZM30 22C27.78 22 26 23.78 26 26V34C26 36.22 27.78 38 30 38H36V28H32V34H30V26H36V22H30Z" fill="white"/>
</svg>
