<svg width="48" height="48" viewBox="0 0 48 48" fill="none" xmlns="http://www.w3.org/2000/svg">
<path d="M42.0005 24C42.0005 35.046 37.8565 44 32.7425 44H17.3145C19.0485 42.878 20.6265 40.9 21.7145 38.552C23.4605 34.776 24.5145 29.632 24.5145 24C24.5145 18.368 23.4605 13.224 21.7145 9.448C20.6245 7.098 19.0465 5.12 17.3125 4H32.7405C37.8565 4 42.0005 12.954 42.0005 24Z" fill="white"/>
<path fill-rule="evenodd" clip-rule="evenodd" d="M8.62 10.268C7.02 13.732 6 18.586 6 24C6 29.414 7.018 34.268 8.62 37.732C10.268 41.288 12.33 43 14.228 43C16.128 43 18.19 41.288 19.836 37.732C21.44 34.268 22.456 29.416 22.456 24C22.456 18.584 21.44 13.732 19.836 10.268C18.19 6.712 16.128 5 14.228 5C12.328 5 10.268 6.712 8.62 10.268ZM11.142 24C11.142 30.628 12.524 36 14.228 36C15.802 36 17.1 31.42 17.29 25.5H15.26C15.0601 25.5032 14.8614 25.4669 14.6756 25.3931C14.4897 25.3194 14.3201 25.2098 14.1767 25.0704C14.0333 24.9311 13.9188 24.7648 13.8397 24.5811C13.7606 24.3974 13.7186 24.2 13.716 24C13.7186 23.8 13.7606 23.6026 13.8397 23.4189C13.9188 23.2352 14.0333 23.0689 14.1767 22.9296C14.3201 22.7902 14.4897 22.6806 14.6756 22.6069C14.8614 22.5331 15.0601 22.4968 15.26 22.5H17.292C17.1 16.58 15.802 12 14.23 12C12.522 12 11.142 17.372 11.142 24Z" fill="white"/>
</svg>
