<svg width="27" height="27" viewBox="0 0 27 27" fill="none" xmlns="http://www.w3.org/2000/svg">
<path d="M13.3333 24C16.1623 24 18.8754 22.8762 20.8758 20.8758C22.8762 18.8754 24 16.1623 24 13.3333C24 10.5044 22.8762 7.79125 20.8758 5.79086C18.8754 3.79047 16.1623 2.66667 13.3333 2.66667C10.5044 2.66667 7.79125 3.79047 5.79086 5.79086C3.79047 7.79125 2.66667 10.5044 2.66667 13.3333C2.66667 16.1623 3.79047 18.8754 5.79086 20.8758C7.79125 22.8762 10.5044 24 13.3333 24ZM13.3333 0C15.0843 0 16.8181 0.344877 18.4358 1.01494C20.0535 1.685 21.5233 2.66713 22.7614 3.90524C23.9995 5.14336 24.9817 6.61321 25.6517 8.23089C26.3218 9.84856 26.6667 11.5824 26.6667 13.3333C26.6667 16.8696 25.2619 20.2609 22.7614 22.7614C20.2609 25.2619 16.8696 26.6667 13.3333 26.6667C5.96 26.6667 0 20.6667 0 13.3333C0 9.79711 1.40476 6.40573 3.90524 3.90524C6.40573 1.40476 9.79711 0 13.3333 0ZM14 6.66667V13.6667L20 17.2267L19 18.8667L12 14.6667V6.66667H14Z" fill="black" fill-opacity="0.7"/>
</svg>
